<svg width="899" height="567" viewBox="0 0 899 567" fill="none" xmlns="http://www.w3.org/2000/svg">
<g clip-path="url(#clip0)">
<path d="M258.588 479.242H690.355C804.787 453.9 898.239 366.616 898.239 236.088C898.255 216.344 896.121 196.656 891.872 177.374L543.849 121.315L275.37 78.0718C256.083 90.6895 237.729 104.679 220.451 119.933L477.436 217.962L598.668 264.209L462.523 230.371L179.946 160.138C162.78 179.324 147.178 199.855 133.291 221.532L218.745 285.423L122.197 239.725C121.789 240.43 121.382 241.135 120.977 241.842C60.4012 347.548 136.756 479.242 258.588 479.242Z" fill="#F2F2F2"/>
<path d="M327.584 48.4027C392.94 61.9016 473.292 78.9623 555.908 96.6972C675.358 122.347 799.536 149.419 889.941 169.21L889.881 168.975C886.007 154.161 878.002 140.753 866.8 130.313C798.25 65.7186 712.168 22.7806 619.332 6.87426H619.324C592.43 2.28919 565.196 -0.0104503 537.915 -1.23108e-05C465.032 -0.102829 393.091 16.453 327.584 48.4027V48.4027Z" fill="#F2F2F2"/>
<path d="M433 48.841V490.841H-3.05176e-05V48.841H433ZM40 360.841H392V86.841H40V360.841Z" fill="#3F3D56"/>
<path d="M193.627 164.068C204.302 146.031 225.42 145.19 225.42 145.19C225.42 145.19 246 142.559 259.201 170.029C271.506 195.634 288.488 220.355 261.935 226.349L257.139 211.421L254.169 227.461C250.388 227.732 246.595 227.797 242.808 227.655C214.372 226.737 187.291 227.923 188.162 217.719C189.322 204.155 183.356 181.423 193.627 164.068Z" fill="#2F2E41"/>
<path d="M266.5 335.341L302.5 360.341C302.5 360.341 323.5 382.341 308.5 382.341C293.5 382.341 287.5 363.341 287.5 363.341L241.5 343.341L266.5 335.341Z" fill="#FFB8B8"/>
<path d="M252 237.841C252 237.841 283.5 335.341 273.5 340.341C263.5 345.341 241.5 348.341 241.5 348.341L252 237.841Z" fill="#D0CDE1"/>
<path opacity="0.1" d="M252 237.841C252 237.841 283.5 335.341 273.5 340.341C263.5 345.341 241.5 348.341 241.5 348.341L252 237.841Z" fill="black"/>
<path d="M152.97 360.841H223.88L173.5 335.341C172.389 336.061 171.324 336.849 170.31 337.701C162.839 343.99 156.908 351.905 152.97 360.841V360.841Z" fill="#2F2E41"/>
<path d="M232 212.841C217.641 212.841 206 201.2 206 186.841C206 172.482 217.641 160.841 232 160.841C246.359 160.841 258 172.482 258 186.841C258 201.2 246.359 212.841 232 212.841Z" fill="#FFB8B8"/>
<path d="M232.5 208.341C232.5 208.341 226.5 227.341 232.5 234.341C238.5 241.341 199.5 224.341 199.5 224.341C199.5 224.341 213.5 204.341 209.5 195.341L232.5 208.341Z" fill="#FFB8B8"/>
<path d="M174.9 295.151L177 308.841C177 308.841 175.94 311.951 174.65 316.481C172.97 322.391 170.9 330.721 170.31 337.701C169.7 344.781 170.62 350.481 175 350.841C181.28 351.361 184.55 355.171 187.81 360.841H260.15C259.96 357.721 259.73 354.481 259.46 351.151C259.31 349.151 259.143 347.124 258.96 345.071C258.76 342.711 251.674 298.381 257 288.841C267.997 269.142 254 257.841 254 257.841C254 257.841 252 242.841 252 237.841C252 233.921 236.64 229.391 230 227.611C229.57 227.501 229.19 227.391 228.84 227.311C227.69 227.011 227 226.841 227 226.841L221.75 224.691C221.75 224.691 207 221.841 206 219.841C205.36 218.979 204.464 218.342 203.44 218.021C201.33 217.121 198.64 216.481 198 215.841C197.086 214.79 196.26 213.667 195.53 212.481C193.612 210.283 191.027 208.773 188.17 208.181C177.43 205.471 162 210.841 162 210.841L167.4 246.091L174.9 295.151Z" fill="#D0CDE1"/>
<path d="M143.5 273.341L179.5 298.341C179.5 298.341 200.5 320.341 185.5 320.341C170.5 320.341 164.5 301.341 164.5 301.341L118.5 281.341L143.5 273.341Z" fill="#FFB8B8"/>
<path d="M205.346 162.329L226.211 151.4L239.301 153.431C243.938 154.151 248.252 156.248 251.682 159.45C255.113 162.652 257.501 166.812 258.537 171.389L260.985 182.2L246.146 181.629L242 171.956V181.47L235.153 181.206L231.178 165.807L228.695 182.2L204.353 181.703L205.346 162.329Z" fill="#2F2E41"/>
<path d="M169 212.841L162 210.841C162 210.841 90.9999 239.841 92.9999 264.841C94.9999 289.841 91.9999 289.841 104 290.841C116 291.841 151 279.841 150 277.841C149 275.841 142 265.841 142 265.841L169 244.841V212.841Z" fill="#D0CDE1"/>
<path d="M206 190.841C203.791 190.841 202 189.05 202 186.841C202 184.632 203.791 182.841 206 182.841C208.209 182.841 210 184.632 210 186.841C210 189.05 208.209 190.841 206 190.841Z" fill="#FFB8B8"/>
<path d="M898.179 250.841V478.841H674.821V250.841H898.179ZM695.971 411.782H877.545V270.443H695.971V411.782Z" fill="#3F3D56"/>
<path d="M798.299 310.279C792.792 300.975 781.898 300.542 781.898 300.542C781.898 300.542 771.283 299.184 764.473 313.354C758.126 326.562 749.366 339.314 763.063 342.406L765.537 334.706L767.069 342.98C769.019 343.12 770.976 343.153 772.93 343.08C787.598 342.606 801.567 343.218 801.118 337.955C800.52 330.957 803.597 319.232 798.299 310.279Z" fill="#2F2E41"/>
<path d="M760.708 398.628L742.138 411.524C742.138 411.524 731.305 422.873 739.043 422.873C746.781 422.873 749.876 413.072 749.876 413.072L773.604 402.755L760.708 398.628Z" fill="#FFB8B8"/>
<path d="M768.188 348.334C768.188 348.334 751.939 398.628 757.097 401.207C762.256 403.787 773.604 405.334 773.604 405.334L768.188 348.334Z" fill="#D0CDE1"/>
<path opacity="0.1" d="M768.188 348.334C768.188 348.334 751.939 398.628 757.097 401.207C762.256 403.787 773.604 405.334 773.604 405.334L768.188 348.334Z" fill="black"/>
<path d="M819.271 411.782H782.693L808.681 398.628C809.254 399 809.804 399.406 810.326 399.846C814.18 403.09 817.24 407.173 819.271 411.782V411.782Z" fill="#2F2E41"/>
<path d="M778.505 335.438C771.097 335.438 765.093 329.434 765.093 322.027C765.093 314.619 771.097 308.615 778.505 308.615C785.912 308.615 791.916 314.619 791.916 322.027C791.916 329.434 785.912 335.438 778.505 335.438Z" fill="#FFB8B8"/>
<path d="M778.247 333.117C778.247 333.117 781.342 342.918 778.247 346.529C775.152 350.14 795.269 341.37 795.269 341.37C795.269 341.37 788.047 331.054 790.111 326.411L778.247 333.117Z" fill="#FFB8B8"/>
<path d="M807.959 377.897L806.876 384.959C806.876 384.959 807.422 386.563 808.088 388.9C809.157 392.475 809.906 396.138 810.326 399.846C810.641 403.498 810.167 406.438 807.907 406.624C804.668 406.892 802.981 408.857 801.299 411.782H763.984C764.082 410.173 764.2 408.501 764.34 406.784C764.417 405.752 764.503 404.706 764.598 403.647C764.701 402.43 768.844 379.548 765.609 374.642C759.201 364.927 767.156 358.651 767.156 358.651C767.156 358.651 768.188 350.913 768.188 348.334C768.188 346.312 776.111 343.975 779.536 343.057C779.758 343 779.954 342.944 780.135 342.902C780.728 342.748 781.084 342.66 781.084 342.66L783.792 341.551C783.792 341.551 791.4 340.081 791.916 339.049C792.246 338.605 792.709 338.276 793.237 338.11C794.201 337.812 795.139 337.436 796.043 336.986C796.514 336.444 796.94 335.864 797.317 335.253C798.307 334.119 799.64 333.34 801.114 333.034C806.654 331.637 814.613 334.407 814.613 334.407L811.828 352.59L807.959 377.897Z" fill="#D0CDE1"/>
<path d="M824.156 366.646L805.586 379.542C805.586 379.542 794.753 390.891 802.491 390.891C810.229 390.891 813.324 381.09 813.324 381.09L837.052 370.773L824.156 366.646Z" fill="#FFB8B8"/>
<path d="M792.253 309.382L781.491 303.745L774.738 304.793C772.346 305.164 770.121 306.245 768.352 307.897C766.582 309.549 765.35 311.695 764.816 314.056L763.553 319.633L771.208 319.338L773.346 314.348V319.256L776.878 319.12L778.928 311.176L780.209 319.633L792.766 319.376L792.253 309.382Z" fill="#2F2E41"/>
<path d="M811.002 335.438L814.613 334.407C814.613 334.407 851.238 349.366 850.206 362.262C849.174 375.158 850.722 375.158 844.532 375.674C838.342 376.189 820.287 369.999 820.803 368.968C821.319 367.936 824.93 362.778 824.93 362.778L811.002 351.945V335.438Z" fill="#D0CDE1"/>
<path d="M791.916 324.09C790.777 324.09 789.853 323.166 789.853 322.027C789.853 320.887 790.777 319.963 791.916 319.963C793.056 319.963 793.98 320.887 793.98 322.027C793.98 323.166 793.056 324.09 791.916 324.09Z" fill="#FFB8B8"/>
<path d="M297.405 365.078C300.392 370.349 305.067 376.731 309.524 380.435L300.623 378.754C309.871 426.603 334.14 470.256 369.902 503.365C405.663 536.474 451.053 557.314 499.472 562.856C547.891 568.397 596.816 558.35 639.133 534.176C681.45 510.003 714.954 472.962 734.773 428.439L725.723 428.054C730.905 425.459 736.908 420.306 741.015 415.853C740.805 421.906 741.455 429.791 743.319 435.278L736.622 429.204C716.636 474.129 682.839 511.506 640.147 535.9C597.455 560.295 548.095 570.433 499.244 564.842C450.393 559.251 404.599 538.222 368.523 504.813C332.446 471.404 307.968 427.357 298.649 379.078L290.747 383.472C293.809 378.552 296.233 371.021 297.405 365.078Z" fill="#6369FF"/>
<path d="M87.1898 363.421C87.3932 363.089 92.1903 355.079 93.8534 338.447C95.3788 323.187 94.3979 297.466 81.0587 261.588C55.7879 193.618 86.8825 138.776 87.2002 138.23L85.6661 137.34C85.5856 137.479 77.562 151.461 72.8221 173.726C66.5592 203.245 68.8398 233.937 79.3965 262.206C104.624 330.059 85.8687 362.181 85.6765 362.497L87.1898 363.421Z" fill="#3F3D56"/>
<path d="M97.0713 134.239C90.7064 134.239 85.5466 129.079 85.5466 122.714C85.5466 116.35 90.7064 111.19 97.0713 111.19C103.436 111.19 108.596 116.35 108.596 122.714C108.596 129.079 103.436 134.239 97.0713 134.239Z" fill="#6369FF"/>
<path d="M60.7244 176.792C54.3595 176.792 49.1997 171.632 49.1997 165.267C49.1997 158.902 54.3595 153.742 60.7244 153.742C67.0892 153.742 72.249 158.902 72.249 165.267C72.249 171.632 67.0892 176.792 60.7244 176.792Z" fill="#3F3D56"/>
<path d="M85.5466 205.16C79.1817 205.16 74.022 200 74.022 193.635C74.022 187.27 79.1817 182.111 85.5466 182.111C91.9115 182.111 97.0713 187.27 97.0713 193.635C97.0713 200 91.9115 205.16 85.5466 205.16Z" fill="#6369FF"/>
<path d="M55.4053 229.096C49.0404 229.096 43.8806 223.936 43.8806 217.571C43.8806 211.206 49.0404 206.046 55.4053 206.046C61.7702 206.046 66.9299 211.206 66.9299 217.571C66.9299 223.936 61.7702 229.096 55.4053 229.096Z" fill="#6369FF"/>
<path d="M94.4117 266.329C88.0469 266.329 82.8871 261.169 82.8871 254.805C82.8871 248.44 88.0469 243.28 94.4117 243.28C100.777 243.28 105.936 248.44 105.936 254.805C105.936 261.169 100.777 266.329 94.4117 266.329Z" fill="#3F3D56"/>
<path d="M80.2275 363.845C80.2275 363.845 91.7522 335.477 57.1783 314.201L80.2275 363.845Z" fill="#3F3D56"/>
<path d="M94.4011 363.331C94.4011 363.331 99.6461 333.163 140.241 333.422L94.4011 363.331Z" fill="#3F3D56"/>
<path d="M848.643 415.78C848.545 415.621 846.249 411.787 845.453 403.826C844.723 396.522 845.193 384.211 851.577 367.038C863.673 334.506 848.79 308.256 848.638 307.995L849.372 307.569C852.238 313.053 854.308 318.917 855.52 324.984C858.517 339.113 857.426 353.804 852.373 367.334C840.298 399.812 849.275 415.186 849.367 415.338L848.643 415.78Z" fill="#3F3D56"/>
<path d="M843.913 306.085C840.867 306.085 838.397 303.615 838.397 300.568C838.397 297.522 840.867 295.052 843.913 295.052C846.96 295.052 849.429 297.522 849.429 300.568C849.429 303.615 846.96 306.085 843.913 306.085Z" fill="#6369FF"/>
<path d="M861.31 326.452C858.264 326.452 855.794 323.982 855.794 320.936C855.794 317.889 858.264 315.419 861.31 315.419C864.357 315.419 866.826 317.889 866.826 320.936C866.826 323.982 864.357 326.452 861.31 326.452Z" fill="#3F3D56"/>
<path d="M849.429 340.03C846.383 340.03 843.913 337.56 843.913 334.514C843.913 331.467 846.383 328.998 849.429 328.998C852.476 328.998 854.945 331.467 854.945 334.514C854.945 337.56 852.476 340.03 849.429 340.03Z" fill="#6369FF"/>
<path d="M863.856 351.487C860.81 351.487 858.34 349.017 858.34 345.97C858.34 342.924 860.81 340.454 863.856 340.454C866.903 340.454 869.372 342.924 869.372 345.97C869.372 349.017 866.903 351.487 863.856 351.487Z" fill="#6369FF"/>
<path d="M845.186 369.308C842.14 369.308 839.67 366.838 839.67 363.792C839.67 360.745 842.14 358.276 845.186 358.276C848.233 358.276 850.702 360.745 850.702 363.792C850.702 366.838 848.233 369.308 845.186 369.308Z" fill="#3F3D56"/>
<path d="M851.975 415.983C851.975 415.983 846.459 402.405 863.008 392.221L851.975 415.983Z" fill="#3F3D56"/>
<path d="M845.191 415.737C845.191 415.737 842.681 401.297 823.25 401.421L845.191 415.737Z" fill="#3F3D56"/>
</g>
<defs>
<clipPath id="clip0">
<rect width="898.239" height="566.341" transform="matrix(-1 0 0 1 898.239 0)" fill="white"/>
</clipPath>
</defs>
</svg>
